<?xml version="1.0" encoding="iso-8859-1"?>
<!-- Uploaded to: SVG Repo, www.svgrepo.com, Generator: SVG Repo Mixer Tools -->
<!DOCTYPE svg PUBLIC "-//W3C//DTD SVG 1.1//EN" "http://www.w3.org/Graphics/SVG/1.1/DTD/svg11.dtd">
<svg fill="#000000" version="1.1" id="Capa_1" xmlns="http://www.w3.org/2000/svg" xmlns:xlink="http://www.w3.org/1999/xlink" 
	 width="800px" height="800px" viewBox="0 0 484.027 484.027"
	 xml:space="preserve">
<g>
	<g id="_x31_2_42_">
		<g>
			<path d="M242.84,161.516c-0.152,0-0.298,0.011-0.45,0.011v129.899h128.509c0.008-0.604,0.045-1.199,0.045-1.803
				C370.946,218.872,313.591,161.516,242.84,161.516z"/>
			<rect x="231.142" y="391.355" width="22.496" height="32.52"/>
			<rect x="117.113" y="276.049" width="32.519" height="22"/>
			<path d="M384.304,155.58l21.641-22.831c5.703-6.017,5.449-15.517-0.564-21.218l-18.156-17.209
				c-6.016-5.704-15.514-5.449-21.217,0.568l-24.756,26.113c-19.52-11.58-41.219-19.85-64.322-24.042V65.039h29.498
				c8.291,0,15.01-6.72,15.01-15.009V15.009c0-8.29-6.719-15.009-15.01-15.009H177.602c-8.291,0-15.01,6.719-15.01,15.009V50.03
				c0,8.289,6.719,15.009,15.01,15.009h29.075v32.002c-23.428,4.304-45.408,12.795-65.124,24.687
				c-0.15-0.156-0.289-0.319-0.447-0.469l-28.137-26.676c-6.018-5.701-15.516-5.449-21.219,0.568l-17.209,18.156
				c-5.701,6.013-5.449,15.514,0.568,21.216l23.488,22.268c-32.066,34.781-51.688,81.204-51.688,132.13
				c0.001,107.583,87.525,195.106,195.105,195.106c107.581,0,195.104-87.523,195.104-195.106
				C437.118,237.401,417.038,190.49,384.304,155.58z M242.014,449.027c-88.281,0-160.104-71.823-160.104-160.106
				c0-88.283,71.822-160.106,160.104-160.106c88.282,0,160.104,71.823,160.104,160.106
				C402.118,377.204,330.296,449.027,242.014,449.027z"/>
		</g>
	</g>
</g>
</svg>